<!DOCTYPE svg PUBLIC "-//W3C//DTD SVG 1.1//EN" "http://www.w3.org/Graphics/SVG/1.1/DTD/svg11.dtd">

<!-- Uploaded to: SVG Repo, www.svgrepo.com, Transformed by: SVG Repo Mixer Tools -->
<svg width="60px" height="60px"  viewBox="-4.32 -4.32 32.64 32.64" id="Layer_1" data-name="Layer 1" xmlns="http://www.w3.org/2000/svg" fill="#000000" transform="matrix(1, 0, 0, 1, 0, 0)rotate(0)">

<rect width="90px" height="90px" style="fill:none; stroke-width:7; stroke:none;" />

<g id="SVGRepo_bgCarrier" stroke-width="0" transform="translate(0,0), scale(1)">

<path transform="translate(-4.32, -4.32), scale(2.04)" fill="#ccf5ff" d="M9.166.33a2.25 2.25 0 00-2.332 0l-5.25 3.182A2.25 2.25 0 00.5 5.436v5.128a2.25 2.25 0 001.084 1.924l5.25 3.182a2.25 2.25 0 002.332 0l5.25-3.182a2.25 2.25 0 001.084-1.924V5.436a2.25 2.25 0 00-1.084-1.924L9.166.33z" strokewidth="0"/>

</g>

<g id="SVGRepo_tracerCarrier" stroke-linecap="round" stroke-linejoin="round" stroke="#CCCCCC" stroke-width="0.048"/>

<g id="SVGRepo_iconCarrier">

<defs>

<style>.cls-1{fill:none;stroke:#7506d0;stroke-miterlimit:10;stroke-width:0.744;}</style>

</defs>

<path class="cls-1" d="M12,12H22.5a10.45,10.45,0,0,1-3.07,7.42L12,12V1.48A10.5,10.5,0,1,0,19.43,19.4"/>

<path class="cls-1" d="M15.82,8.16h3.34a1.43,1.43,0,0,0,1.43-1.43h0A1.43,1.43,0,0,0,19.16,5.3h-1a1.44,1.44,0,0,1-1.43-1.44h0A1.43,1.43,0,0,1,18.2,2.43h3.35"/>

<line class="cls-1" x1="18.68" y1="0.52" x2="18.68" y2="2.43"/>

<line class="cls-1" x1="18.68" y1="8.16" x2="18.68" y2="10.07"/>

</g>

</svg>